# xmcd
#
# Track frame offsets: 
#        150
#        14093
#        24970
#        35712
#        45188
#        54163
#        63667
#        76440
#        87436
#        99361
#        111856
#        123540
#        135300
#        146071
#        157602
#        168829
#        179337
#        189281
#        202072
#        212395
#        224726
#        236153
#        247604
#        259790
#        268773
#
# Disc length: 3729 seconds
#
# Revision: 1
# Processed by: cddbd v1.5.2PL0 Copyright (c) Steve Scherf et al.
# Submitted via: ExactAudioCopyFreeDBPlugin 1.0
#
DISCID=580e8f19
DTITLE=Various Artist - Soul Sixties [Real Gone Music]
DYEAR=2017
DGENRE=Soul
TTITLE0=The Supremes - I Want a Guy
TTITLE1=The Tams - Vacation Time
TTITLE2=Lee Dorsey - Ya Ya
TTITLE3=The Pips - Every Beat of My Heart
TTITLE4=Willie Harper - But I Couldn't
TTITLE5=The Shirelles - Mama Said
TTITLE6=Ray Charles - Unchain My Heart
TTITLE7=The "5" Royales - Take Me with You Baby
TTITLE8=Jean Dushon - Talk to Me, Talk to Me
TTITLE9=Little Anthony and The Imperials - Please Say You Want Me
TTITLE10=Tommy Hunt - Human
TTITLE11=Bobby "Blue" Bland - Turn on Your Love Light
TTITLE12=Robert Knight - Dance Only with Me
TTITLE13=Sam Cooke - That's It - I Quit - I'm Movin' On
TTITLE14=Barrett Strong - Misery
TTITLE15=The Impressions - Gypsy Woman
TTITLE16=Jerry Butler - Don't Take Your Love from Me
TTITLE17=Curtis Lee - Under the Moon of Love
TTITLE18=Don Covay - Pony Time
TTITLE19=The Temptations - Check Yourself
TTITLE20=Sammy Turner - Pour it On
TTITLE21=The Crystals - There's No Other Like My Baby
TTITLE22=Mary Wells - Strange Love
TTITLE23=Jackie Wilson - Please Tell Me Why
TTITLE24=Timi Yuro - Hurt
EXTD=
EXTT0=
EXTT1=
EXTT2=
EXTT3=
EXTT4=
EXTT5=
EXTT6=
EXTT7=
EXTT8=
EXTT9=
EXTT10=
EXTT11=
EXTT12=
EXTT13=
EXTT14=
EXTT15=
EXTT16=
EXTT17=
EXTT18=
EXTT19=
EXTT20=
EXTT21=
EXTT22=
EXTT23=
EXTT24=
PLAYORDER=
